<svg width="56" height="60" fill="none" xmlns="http://www.w3.org/2000/svg"><path fill-rule="evenodd" clip-rule="evenodd" d="m28.6 20.773-4.517 3.73c-.89.731-1.015 1.816-.243 2.718.773.902 1.885.97 2.775.238 2.084-1.713 1.991-6.554 1.988-6.686l1.084-.99c.739-.651 1.407-.926 2.391-.926h2.004c1.15 0 1.807.538 1.917 1.564.56-1.06 1.897-1.62 3.474-1.62 1.087 0 2.595.685 4.16.399a.446.446 0 0 1 .108-.038h.078l.03-.008v-1.592c0-.619.334-.946.965-.946h1.018c.631 0 .965.327.965.946v1.6h.93c.631 0 .964.326.964.945v.43c0 .62-.333.946-.947.946h-.947v2.683c0 .757.509 1.05 1.052 1.118.702.086.965.293.965.946v.774c0 .705-.438.946-1.245.946-1.334 0-3.807-.602-3.807-3.233v-3.234h-1.05a.205.205 0 0 1-.064-.009 14.195 14.195 0 0 1-1.641-.118c-.443-.062-1.06-.234-1.657-.234-.648 0-.806.224-.806.464 0 1.015 4.228.5 4.228 3.578 0 1.65-1.404 2.906-3.72 2.906-1.037 0-2.28-.363-3.036-.252v10.42h3.445c1.266 0 1.934.652 1.934 1.887v1.372c0 1.235-.668 1.886-1.934 1.886H26.594c-1.266 0-1.934-.651-1.934-1.886v-1.372c0-1.235.668-1.887 1.934-1.887h3.41V28.016c0-.926.035-1.887.035-1.887h-.03c-1.031 8.237-12.378 17.13-12.378 17.13S5.176 33.499 5.176 24.958c0-3.6 2.429-6.1 6.227-6.1 3.799 0 6.227 2.5 6.227 6.1 0-3.6 2.43-6.1 6.228-6.1 2.022 0 3.656.708 4.742 1.915Zm7.416 2.08v2.744c.974-.222 2.485.151 3.106.151.614 0 .825-.223.825-.498 0-.865-2.97-.655-3.931-2.396Z" fill="#FA1982"/></svg>