<svg width="44" height="27" fill="none" xmlns="http://www.w3.org/2000/svg"><path fill-rule="evenodd" clip-rule="evenodd" d="m23.424 4.157-4.517 3.73c-.89.731-1.015 1.816-.243 2.718.772.901 1.885.97 2.775.238 2.083-1.713 1.991-6.554 1.988-6.686l1.084-.99c.739-.652 1.407-.926 2.391-.926h2.004c1.15 0 1.807.538 1.917 1.563.56-1.06 1.896-1.62 3.474-1.62 1.087 0 2.595.686 4.16.4a.445.445 0 0 1 .108-.039h.078l.03-.007V.946c0-.62.334-.946.965-.946h1.018c.631 0 .965.327.965.946v1.6h.93c.63 0 .964.326.964.945v.43c0 .62-.333.946-.947.946h-.947V7.55c0 .757.508 1.049 1.052 1.118.702.086.965.292.965.946v.774c0 .705-.439.946-1.246.946-1.333 0-3.806-.602-3.806-3.234V4.867h-1.05a.205.205 0 0 1-.064-.01 14.197 14.197 0 0 1-1.641-.117c-.444-.062-1.06-.234-1.657-.234-.649 0-.807.223-.807.464 0 1.015 4.228.499 4.228 3.577 0 1.651-1.403 2.907-3.719 2.907-1.037 0-2.28-.363-3.036-.252v10.42h3.445c1.266 0 1.934.652 1.934 1.887v1.372c0 1.235-.668 1.886-1.934 1.886H21.418c-1.266 0-1.934-.651-1.934-1.886v-1.372c0-1.235.668-1.887 1.934-1.887h3.41V11.4c0-.927.035-1.887.035-1.887h-.03c-1.031 8.237-12.379 17.13-12.379 17.13S0 16.882 0 8.34c0-3.599 2.429-6.1 6.227-6.1 3.798 0 6.227 2.501 6.227 6.1 0-3.599 2.429-6.1 6.227-6.1 2.023 0 3.657.71 4.743 1.916Zm7.416 2.08v2.744c.973-.222 2.484.151 3.106.151.614 0 .825-.223.825-.499 0-.864-2.97-.654-3.931-2.395Z" fill="#FA1982"/></svg>