<svg width="1014" height="120" viewBox="0 0 1014 120" fill="none" xmlns="http://www.w3.org/2000/svg">
<path fill-rule="evenodd" clip-rule="evenodd" d="M88.4064 22.704L74.4431 34.1412C71.6911 36.3855 71.3052 39.7134 73.6925 42.4783C76.0799 45.2433 79.5189 45.4521 82.2706 43.2078C88.7109 37.9553 88.4255 23.1104 88.4165 22.704L91.7675 19.6697C94.0499 17.6711 96.1146 16.8294 99.1576 16.8294H105.352C108.908 16.8294 110.937 18.48 111.278 21.6234C113.007 18.3719 117.14 16.655 122.017 16.655C125.376 16.655 130.037 18.7571 134.876 17.8806C134.989 17.8248 135.1 17.7849 135.209 17.7626H135.45L135.544 17.7407V12.8578C135.544 10.9592 136.574 9.95703 138.527 9.95703H141.672C143.624 9.95703 144.654 10.9592 144.654 12.8578V17.7626H147.528C149.481 17.7626 150.511 18.7648 150.511 20.6634V21.9819C150.511 23.8805 149.481 24.8827 147.583 24.8827H144.654V33.1103C144.654 35.4309 146.227 36.3274 147.908 36.5386C150.077 36.8021 150.891 37.4353 150.891 39.4393V41.8127C150.891 43.9752 149.535 44.7135 147.04 44.7135C142.919 44.7135 135.273 42.8676 135.273 34.7981V24.8827H132.026C131.96 24.8834 131.894 24.8739 131.831 24.8546C130.06 24.8377 128.035 24.6685 126.757 24.4921C125.387 24.3029 123.481 23.7751 121.637 23.7751C119.631 23.7751 119.143 24.4606 119.143 25.1989C119.143 28.3106 132.212 26.7286 132.212 36.1689C132.212 41.2318 127.873 45.0821 120.715 45.0821C117.509 45.0821 113.666 43.9705 111.33 44.3087V76.264H121.98C125.892 76.264 127.957 78.2626 127.957 82.0497V86.2575C127.957 90.0445 125.892 92.0432 121.98 92.0432H82.2045C78.2924 92.0432 76.2273 90.0445 76.2273 86.2575V82.0497C76.2273 78.2626 78.292 76.264 82.2045 76.264H92.7462V44.9162C92.7462 42.0759 92.855 39.1305 92.855 39.1305H92.7635C89.5735 64.3892 54.4977 91.6617 54.4977 91.6617C54.4977 91.6617 16 61.7286 16 35.5374C16 24.4995 23.5076 16.8294 35.2487 16.8294C46.9897 16.8294 54.4974 24.4998 54.4974 35.5374C54.4974 24.4995 62.005 16.8294 73.7461 16.8294C79.998 16.8294 85.0494 19.0041 88.4064 22.704ZM111.329 29.086V37.4982C114.339 36.8187 119.01 37.9624 120.932 37.9624C122.83 37.9624 123.481 37.2768 123.481 36.4328C123.481 33.781 114.303 34.4254 111.329 29.086V29.086Z" fill="#FAFAFA"/>
<path d="M438.521 108.08C439.361 106.52 440.441 106.04 442.361 106.76C445.001 107.96 449.681 109.88 456.401 109.88C467.561 109.88 477.161 104.36 477.161 90.9202V84.6802C477.161 82.4002 477.521 80.3602 477.521 80.3602H477.281C473.681 87.2002 467.561 91.6402 458.081 91.6402C441.881 91.6402 431.201 78.9202 431.201 60.3202C431.201 42.5602 441.041 30.2002 457.841 30.2002C473.441 30.2002 477.521 41.2402 477.521 41.2402H477.761C477.761 41.2402 477.521 40.4002 477.521 39.2002V34.2802C477.521 32.7202 478.481 31.6402 480.401 31.6402H482.321C484.241 31.6402 485.321 32.7202 485.321 34.6402V90.5602C485.321 109.76 471.041 117.2 456.641 117.2C450.401 117.2 444.281 115.88 439.241 113.6C437.441 112.76 436.961 111.56 437.801 109.76L438.521 108.08ZM459.281 84.3202C468.881 84.3202 477.281 78.4402 477.281 60.9202C477.281 43.0402 468.641 37.5202 458.561 37.5202C446.321 37.5202 439.601 46.1602 439.601 60.0802C439.601 75.2002 447.401 84.3202 459.281 84.3202Z" fill="#FAFAFA"/>
<path d="M367.243 89.0002V34.6402C367.243 32.7202 368.323 31.6402 370.243 31.6402H372.403C374.203 31.6402 375.283 32.7202 375.283 34.6402V41.6002C375.283 44.0002 374.803 45.9202 374.803 45.9202H375.043C377.323 40.4002 385.243 30.2002 399.403 30.2002C414.403 30.2002 419.683 38.7202 419.683 53.6002V89.0002C419.683 90.9202 418.603 92.0002 416.683 92.0002H414.403C412.483 92.0002 411.523 90.9202 411.523 89.0002V55.7602C411.523 46.2802 409.963 37.8802 398.323 37.8802C385.483 37.8802 375.403 48.4402 375.403 62.4802V89.0002C375.403 90.9202 374.443 92.0002 372.523 92.0002H370.243C368.323 92.0002 367.243 90.9202 367.243 89.0002Z" fill="#FAFAFA"/>
<path d="M345.565 17.8406C343.645 17.8406 342.685 16.8806 342.685 14.9606V10.6406C342.685 8.72062 343.645 7.64062 345.565 7.64062H348.565C350.485 7.64062 351.445 8.72062 351.445 10.6406V14.9606C351.445 16.8806 350.485 17.8406 348.565 17.8406H345.565ZM342.925 89.0006V34.6406C342.925 32.7206 344.005 31.6406 345.925 31.6406H348.205C350.125 31.6406 351.085 32.7206 351.085 34.6406V89.0006C351.085 90.9206 350.125 92.0006 348.205 92.0006H345.925C344.005 92.0006 342.925 90.9206 342.925 89.0006Z" fill="#FAFAFA"/>
<path d="M267.296 61.5202C267.296 43.6402 281.576 30.2002 299.096 30.2002C316.736 30.2002 331.016 43.6402 331.016 61.5202C331.016 79.7602 316.736 93.4402 299.216 93.4402C281.576 93.4402 267.296 79.7602 267.296 61.5202ZM275.696 61.5202C275.696 75.5602 286.256 86.1202 299.216 86.1202C312.056 86.1202 322.616 75.5602 322.616 61.5202C322.616 47.8402 312.056 37.5202 299.216 37.5202C286.256 37.5202 275.696 47.8402 275.696 61.5202Z" fill="#FAFAFA"/>
<path d="M181.011 49.8802C181.011 25.2802 199.251 6.2002 223.611 6.2002C238.011 6.2002 247.731 11.7202 251.331 14.2402C252.891 15.4402 253.011 16.8802 251.811 18.3202L250.731 19.8802C249.651 21.4402 248.211 21.6802 246.651 20.6002C243.051 18.3202 235.131 14.0002 223.851 14.0002C203.451 14.0002 189.651 29.7202 189.651 49.6402C189.651 70.2802 203.931 85.6402 223.131 85.6402C240.051 85.6402 249.771 73.2802 249.771 73.2802V59.1202H238.251C236.331 59.1202 235.371 58.0402 235.371 56.1202V54.6802C235.371 52.7602 236.331 51.6802 238.251 51.6802H254.691C256.611 51.6802 257.571 52.7602 257.571 54.6802V89.0002C257.571 90.9202 256.611 92.0002 254.691 92.0002H253.011C251.091 92.0002 250.011 90.9202 250.011 89.3602V85.0402C250.011 83.4802 250.131 81.9202 250.131 81.9202H249.891C249.891 81.9202 240.291 93.4402 222.411 93.4402C199.251 93.4402 181.011 74.8402 181.011 49.8802Z" fill="#FAFAFA"/>
<path d="M970.18 70.28V38.96H965.14C963.22 38.96 962.26 38 962.26 36.08V35.12C962.26 33.2 963.22 32.12 965.14 32.12H970.3V17.96C970.3 16.04 971.38 14.96 973.3 14.96H975.46C977.38 14.96 978.34 16.04 978.34 17.96V32.12H990.58C992.5 32.12 993.58 33.2 993.58 35.12V36.08C993.58 38 992.5 38.96 990.58 38.96H978.34V69.2C978.34 83.12 986.86 84.8 991.54 85.04C993.94 85.28 994.78 86 994.78 88.04V89.6C994.78 91.52 993.82 92.48 991.42 92.48C978.22 92.48 970.18 84.44 970.18 70.28Z" fill="#FAFAFA"/>
<path d="M915.261 86.4792C913.821 85.3992 913.701 83.9592 914.781 82.3992L915.741 81.1992C916.821 79.7592 918.141 79.6392 919.821 80.7192C922.461 82.7592 927.981 86.2392 935.781 86.2392C942.501 86.2392 948.021 82.8792 948.021 76.5192C948.021 62.9592 915.741 67.0392 915.741 47.1192C915.741 35.9592 925.221 30.1992 936.261 30.1992C944.901 30.1992 950.301 33.3192 952.821 35.1192C954.381 36.0792 954.621 37.5192 953.661 39.0792L952.821 40.3992C951.861 42.0792 950.421 42.1992 948.741 41.2392C946.461 39.6792 942.141 37.3992 935.781 37.3992C929.421 37.3992 923.901 40.1592 923.901 46.7592C923.901 60.6792 956.061 56.2392 956.061 76.3992C956.061 86.3592 947.661 93.4392 935.661 93.4392C925.101 93.4392 918.261 88.9992 915.261 86.4792Z" fill="#FAFAFA"/>
<path d="M880.706 88.9993V34.6393C880.706 32.7193 881.786 31.6393 883.706 31.6393H885.866C887.666 31.6393 888.746 32.7193 888.746 34.6393V42.7993C888.746 45.4393 888.266 47.5993 888.266 47.5993H888.506C891.386 38.8393 898.346 31.2793 907.946 31.2793C910.106 31.2793 911.066 32.2393 911.066 34.1593V36.3193C911.066 38.2393 909.746 39.3193 907.706 39.3193C894.986 39.3193 888.866 53.8393 888.866 66.4393V88.9993C888.866 90.9193 887.906 91.9993 885.986 91.9993H883.706C881.786 91.9993 880.706 90.9193 880.706 88.9993Z" fill="#FAFAFA"/>
<path d="M859.026 17.8396C857.106 17.8396 856.146 16.8796 856.146 14.9596V10.6396C856.146 8.71965 857.106 7.63965 859.026 7.63965H862.026C863.946 7.63965 864.906 8.71965 864.906 10.6396V14.9596C864.906 16.8796 863.946 17.8396 862.026 17.8396H859.026ZM856.386 88.9996V34.6396C856.386 32.7196 857.466 31.6396 859.386 31.6396H861.666C863.586 31.6396 864.546 32.7196 864.546 34.6396V88.9996C864.546 90.9196 863.586 91.9996 861.666 91.9996H859.386C857.466 91.9996 856.386 90.9196 856.386 88.9996Z" fill="#FAFAFA"/>
<path d="M802.244 88.9996V10.6396C802.244 8.71965 803.204 7.63965 805.124 7.63965H843.644C845.564 7.63965 846.644 8.71965 846.644 10.6396V12.0796C846.644 13.9996 845.564 15.0796 843.644 15.0796H810.524V46.7597H838.604C840.524 46.7597 841.484 47.7196 841.484 49.6396V51.1996C841.484 53.1196 840.524 54.1996 838.604 54.1996H810.524V88.9996C810.524 90.9196 809.444 91.9996 807.644 91.9996H805.124C803.204 91.9996 802.244 90.9196 802.244 88.9996Z" fill="#FAFAFA"/>
<path d="M705.291 61.8792C705.291 42.0792 718.731 30.1992 735.051 30.1992C751.131 30.1992 760.251 41.8392 760.251 58.9992C760.251 60.6792 758.931 61.9992 757.131 61.9992H713.691C714.051 77.3592 724.611 86.1192 737.091 86.1192C744.651 86.1192 750.171 82.7592 752.931 80.5992C754.611 79.5192 755.931 79.7592 756.891 81.3192L757.851 82.7592C758.691 84.1992 758.451 85.6392 757.011 86.7192C753.771 89.1192 746.571 93.4392 736.851 93.4392C718.851 93.4392 705.291 80.4792 705.291 61.8792ZM714.051 55.8792H751.971C751.491 43.1592 743.811 36.9192 734.811 36.9192C724.731 36.9192 715.971 43.6392 714.051 55.8792Z" fill="#FAFAFA"/>
<path d="M668.858 89.7197L647.858 35.1196C647.018 32.9596 647.978 31.6396 650.138 31.6396H652.778C654.338 31.6396 655.538 32.3596 656.018 34.0396L671.978 75.9196C673.058 78.9196 674.018 83.2396 674.018 83.2396H674.258C674.258 83.2396 675.218 79.0396 676.418 75.9196L692.258 34.0396C692.738 32.3596 693.938 31.6396 695.498 31.6396H698.018C700.298 31.6396 701.138 32.9596 700.418 35.1196L679.418 89.7197C678.938 91.2797 677.738 91.9996 676.178 91.9996H672.218C670.538 91.9996 669.458 91.2797 668.858 89.7197Z" fill="#FAFAFA"/>
<path d="M579.538 61.5192C579.538 43.6392 593.818 30.1992 611.338 30.1992C628.978 30.1992 643.258 43.6392 643.258 61.5192C643.258 79.7592 628.978 93.4392 611.458 93.4392C593.818 93.4392 579.538 79.7592 579.538 61.5192ZM587.938 61.5192C587.938 75.5592 598.498 86.1192 611.458 86.1192C624.298 86.1192 634.858 75.5592 634.858 61.5192C634.858 47.8392 624.298 37.5192 611.458 37.5192C598.498 37.5192 587.938 47.8392 587.938 61.5192Z" fill="#FAFAFA"/>
<path d="M530.65 88.9996V10.6396C530.65 8.71965 531.61 7.63965 533.53 7.63965H536.05C537.85 7.63965 538.93 8.71965 538.93 10.6396V84.5596H575.05C576.97 84.5596 578.05 85.6396 578.05 87.5596V88.9996C578.05 90.9196 576.97 91.9996 575.05 91.9996H533.53C531.61 91.9996 530.65 90.9196 530.65 88.9996Z" fill="#FAFAFA"/>
</svg>
