<svg width="328" height="60" fill="none" xmlns="http://www.w3.org/2000/svg"><path fill-rule="evenodd" clip-rule="evenodd" d="m28.6 20.773-4.517 3.73c-.89.731-1.015 1.816-.243 2.718.773.902 1.885.97 2.775.238 2.084-1.713 1.991-6.554 1.988-6.686l1.084-.99c.739-.651 1.407-.926 2.391-.926h2.004c1.15 0 1.807.538 1.917 1.564.56-1.06 1.897-1.62 3.474-1.62 1.087 0 2.595.685 4.16.399a.446.446 0 0 1 .108-.038h.078l.03-.008v-1.592c0-.619.334-.946.965-.946h1.018c.631 0 .965.327.965.946v1.6h.93c.631 0 .964.326.964.945v.43c0 .62-.333.946-.947.946h-.947v2.683c0 .757.509 1.05 1.052 1.118.702.086.965.293.965.946v.774c0 .705-.438.946-1.245.946-1.334 0-3.807-.602-3.807-3.233v-3.234h-1.05a.205.205 0 0 1-.064-.009 14.195 14.195 0 0 1-1.641-.118c-.443-.062-1.06-.234-1.657-.234-.648 0-.806.224-.806.464 0 1.015 4.228.5 4.228 3.578 0 1.65-1.404 2.906-3.72 2.906-1.037 0-2.28-.363-3.036-.252v10.42h3.445c1.266 0 1.934.652 1.934 1.887v1.372c0 1.235-.668 1.886-1.934 1.886H26.594c-1.266 0-1.934-.651-1.934-1.886v-1.372c0-1.235.668-1.887 1.934-1.887h3.41V28.016c0-.926.035-1.887.035-1.887h-.03c-1.031 8.237-12.378 17.13-12.378 17.13S5.176 33.499 5.176 24.958c0-3.6 2.429-6.1 6.227-6.1 3.799 0 6.227 2.5 6.227 6.1 0-3.6 2.43-6.1 6.228-6.1 2.022 0 3.656.708 4.742 1.915Zm7.416 2.08v2.744c.974-.222 2.485.151 3.106.151.614 0 .825-.223.825-.498 0-.865-2.97-.655-3.931-2.396Z" fill="#FA1982"/><path d="M141.864 48.613c.272-.508.621-.665 1.242-.43.854.391 2.368 1.017 4.542 1.017 3.611 0 6.716-1.8 6.716-6.182v-2.035c0-.743.117-1.409.117-1.409h-.078c-1.164 2.23-3.144 3.679-6.211 3.679-5.241 0-8.696-4.148-8.696-10.214 0-5.79 3.183-9.821 8.618-9.821 5.047 0 6.367 3.6 6.367 3.6h.078s-.078-.274-.078-.665v-1.605c0-.508.31-.86.932-.86h.621c.621 0 .97.352.97.978V42.9c0 6.261-4.619 8.687-9.278 8.687-2.019 0-3.998-.43-5.629-1.174-.582-.273-.738-.665-.466-1.252l.233-.548Zm6.716-7.747c3.106 0 5.823-1.918 5.823-7.63 0-5.831-2.795-7.631-6.056-7.631-3.959 0-6.133 2.817-6.133 7.356 0 4.93 2.523 7.905 6.366 7.905ZM118.806 42.392V24.666c0-.627.349-.979.97-.979h.699c.582 0 .932.352.932.979v2.27c0 .782-.156 1.408-.156 1.408h.078c.738-1.8 3.3-5.126 7.881-5.126 4.852 0 6.56 2.778 6.56 7.63v11.544c0 .626-.349.978-.97.978h-.738c-.621 0-.931-.352-.931-.978v-10.84c0-3.09-.505-5.83-4.271-5.83-4.154 0-7.415 3.444-7.415 8.022v8.648c0 .626-.31.978-.931.978h-.738c-.621 0-.97-.352-.97-.978ZM111.792 19.187c-.621 0-.932-.313-.932-.939V16.84c0-.627.311-.979.932-.979h.971c.621 0 .931.352.931.979v1.408c0 .626-.31.94-.931.94h-.971Zm-.854 23.205V24.666c0-.626.349-.979.971-.979h.737c.621 0 .932.353.932.979v17.726c0 .626-.311.978-.932.978h-.737c-.622 0-.971-.352-.971-.978ZM86.472 33.43c0-5.83 4.62-10.212 10.288-10.212 5.706 0 10.326 4.382 10.326 10.213 0 5.948-4.62 10.409-10.287 10.409-5.707 0-10.327-4.461-10.327-10.41Zm2.718 0c0 4.58 3.416 8.023 7.609 8.023 4.153 0 7.57-3.444 7.57-8.022 0-4.461-3.417-7.826-7.57-7.826-4.193 0-7.61 3.365-7.61 7.826ZM58.558 29.635c0-8.022 5.9-14.243 13.782-14.243 4.658 0 7.802 1.8 8.967 2.621.505.392.544.861.155 1.33l-.349.51c-.35.508-.815.586-1.32.234a13.619 13.619 0 0 0-7.376-2.152c-6.6 0-11.064 5.126-11.064 11.622 0 6.73 4.62 11.739 10.831 11.739 5.474 0 8.618-4.03 8.618-4.03v-4.618h-3.726c-.621 0-.932-.352-.932-.978v-.47c0-.626.31-.978.932-.978h5.318c.621 0 .932.352.932.978v11.192c0 .626-.31.978-.932.978h-.543c-.622 0-.971-.352-.971-.861V41.1c0-.508.039-1.017.039-1.017h-.078s-3.105 3.756-8.89 3.756c-7.492 0-13.393-6.065-13.393-14.204ZM313.86 36.287V26.074h-1.631c-.621 0-.932-.313-.932-.939v-.313c0-.626.311-.978.932-.978h1.669v-4.618c0-.626.35-.978.971-.978h.699c.621 0 .931.352.931.978v4.618h3.96c.621 0 .971.352.971.978v.313c0 .626-.35.94-.971.94h-3.96v9.86c0 4.54 2.757 5.087 4.271 5.165.776.078 1.048.313 1.048.978v.51c0 .625-.311.938-1.087.938-4.27 0-6.871-2.621-6.871-7.239ZM296.093 41.57c-.466-.352-.505-.822-.156-1.33l.311-.392c.349-.47.776-.508 1.32-.156.854.665 2.64 1.8 5.163 1.8 2.174 0 3.96-1.096 3.96-3.17 0-4.422-10.443-3.091-10.443-9.587 0-3.639 3.067-5.517 6.638-5.517 2.795 0 4.542 1.017 5.358 1.604.504.313.582.783.271 1.291l-.271.43c-.311.549-.777.588-1.32.275-.738-.509-2.135-1.252-4.193-1.252-2.057 0-3.843.9-3.843 3.052 0 4.539 10.404 3.091 10.404 9.665 0 3.248-2.718 5.556-6.6 5.556-3.416 0-5.629-1.447-6.599-2.269ZM284.914 42.392V24.666c0-.626.349-.978.971-.978h.698c.583 0 .932.352.932.978v2.66c0 .862-.155 1.566-.155 1.566h.077c.932-2.857 3.184-5.322 6.289-5.322.699 0 1.01.313 1.01.94v.704c0 .626-.427.978-1.087.978-4.115 0-6.095 4.735-6.095 8.843v7.357c0 .626-.311.978-.932.978h-.737c-.622 0-.971-.352-.971-.978ZM277.901 19.187c-.621 0-.932-.313-.932-.939V16.84c0-.627.311-.979.932-.979h.97c.622 0 .932.352.932.979v1.408c0 .626-.31.94-.932.94h-.97Zm-.854 23.205V24.666c0-.626.349-.979.97-.979h.738c.621 0 .932.353.932.979v17.726c0 .626-.311.978-.932.978h-.738c-.621 0-.97-.352-.97-.978ZM259.531 42.392V16.84c0-.627.311-.979.932-.979h12.461c.622 0 .971.352.971.979v.47c0 .625-.349.977-.971.977H262.21v10.33h9.084c.621 0 .932.314.932.94v.509c0 .626-.311.978-.932.978h-9.084v11.348c0 .626-.35.978-.932.978h-.815c-.621 0-.932-.352-.932-.978ZM228.166 33.548c0-6.456 4.348-10.33 9.628-10.33 5.202 0 8.152 3.795 8.152 9.391 0 .548-.427.978-1.009.978h-14.054c.117 5.009 3.533 7.866 7.571 7.866 2.445 0 4.231-1.096 5.124-1.8.543-.353.97-.274 1.281.234l.311.47c.271.47.194.939-.272 1.291-1.048.783-3.378 2.191-6.522 2.191-5.823 0-10.21-4.226-10.21-10.29ZM231 31.592h12.267c-.155-4.148-2.64-6.183-5.551-6.183-3.261 0-6.095 2.191-6.716 6.183ZM216.38 42.627l-6.794-17.805c-.272-.704.039-1.134.738-1.134h.854c.504 0 .893.234 1.048.782l5.163 13.657c.349.978.66 2.387.66 2.387h.078s.31-1.37.698-2.387l5.125-13.657c.155-.548.543-.782 1.048-.782h.815c.738 0 1.009.43.777 1.134l-6.794 17.805c-.155.508-.544.743-1.048.743h-1.281c-.544 0-.893-.235-1.087-.743ZM187.484 33.43c0-5.83 4.62-10.212 10.288-10.212 5.707 0 10.326 4.382 10.326 10.213 0 5.948-4.619 10.409-10.287 10.409-5.707 0-10.327-4.461-10.327-10.41Zm2.718 0c0 4.58 3.416 8.023 7.609 8.023 4.154 0 7.57-3.444 7.57-8.022 0-4.461-3.416-7.826-7.57-7.826-4.193 0-7.609 3.365-7.609 7.826ZM171.669 42.392V16.84c0-.627.311-.979.932-.979h.815c.582 0 .932.352.932.979v24.104h11.685c.621 0 .97.352.97.978v.47c0 .626-.349.978-.97.978h-13.432c-.621 0-.932-.352-.932-.978Z" fill="#FAFAFA"/></svg>